<?xml version="1.0" encoding="UTF-8"?>
<svg xmlns="http://www.w3.org/2000/svg" xmlns:xlink="http://www.w3.org/1999/xlink" width="466" height="170" viewBox="0 0 466 170">
<path fill="none" stroke-width="12" stroke-linecap="butt" stroke-linejoin="bevel" stroke="rgb(0%, 0%, 0%)" stroke-opacity="1" stroke-miterlimit="10" d="M 213.898438 198.347656 L 213.898438 326.347656 L 269.898438 198.347656 L 325.898438 326.347656 L 325.898438 198.347656 " transform="matrix(1, 0, 0, -1, -37, 347)"/>
<path fill="none" stroke-width="12" stroke-linecap="butt" stroke-linejoin="bevel" stroke="rgb(0%, 0%, 0%)" stroke-opacity="1" stroke-miterlimit="10" d="M 245.898438 262.347656 L 293.898438 262.347656 " transform="matrix(1, 0, 0, -1, -37, 347)"/>
<path fill="none" stroke-width="12" stroke-linecap="square" stroke-linejoin="miter" stroke="rgb(0%, 0%, 0%)" stroke-opacity="0.2" stroke-miterlimit="10" d="M 213.898438 204.347656 L 61.898438 204.347656 L 61.898438 322.347656 " transform="matrix(1, 0, 0, -1, -37, 347)"/>
<path fill="none" stroke-width="12" stroke-linecap="butt" stroke-linejoin="miter" stroke="rgb(0%, 0%, 0%)" stroke-opacity="0.2" stroke-miterlimit="10" d="M 213.898438 262.546875 L 137.898438 262.546875 " transform="matrix(1, 0, 0, -1, -37, 347)"/>
<path fill="none" stroke-width="12" stroke-linecap="butt" stroke-linejoin="miter" stroke="rgb(0%, 0%, 0%)" stroke-opacity="0.2" stroke-miterlimit="10" d="M 219.359375 322.746094 L 137.898438 322.746094 " transform="matrix(1, 0, 0, -1, -37, 347)"/>
<path fill="none" stroke-width="12" stroke-linecap="butt" stroke-linejoin="bevel" stroke="rgb(0%, 0%, 0%)" stroke-opacity="0.2" stroke-miterlimit="10" d="M 429.898438 326.347656 L 429.898438 198.347656 L 327.273438 322.511719 " transform="matrix(1, 0, 0, -1, -37, 347)"/>
</svg>
